<?xml version="1.0" encoding="utf-8"?>
<!-- Generator: Adobe Illustrator 25.0.0, SVG Export Plug-In . SVG Version: 6.00 Build 0)  -->
<svg version="1.1" id="_x3C_Layer_x3E_" xmlns="http://www.w3.org/2000/svg" xmlns:xlink="http://www.w3.org/1999/xlink" x="0px"
	 y="0px" viewBox="0 0 100 100" style="enable-background:new 0 0 800 800;" xml:space="preserve">
<style type="text/css">
	.st0{fill:#ECF0F1;}
	.st1{fill:#333333;}
	.st2{opacity:0.75;}
	.st3{fill:#CCCCCC;}
	.st4{fill:#C9C9C9;}
	.st5{fill:#96DFF2;}
	.st6{fill:#D7D7D7;}
	.st7{fill:#B3B3B3;}
	.st8{opacity:0.25;}
	.st9{fill:#FFFFFF;}
	.st10{fill:#FFE167;}
	.st11{fill:#FCFBF9;}
	.st12{fill:#F15723;}
	.st13{fill:#D9D9D9;}
	.st14{fill:#FDE3A7;}
	.st15{fill:#FBCB43;}
	.st16{fill:#E49306;}
	.st17{fill:#FFE680;}
	.st18{fill:#DC4437;}
	.st19{fill:#E6E6E6;}
	.st20{fill:#FFE373;}
	.st21{fill:#95A5A6;}
	.st22{fill:#7F8C8D;}
</style>
<path class="st0" d="M744.4,775H55.6C38.7,775,25,761.3,25,744.4V55.6C25,38.7,38.7,25,55.6,25H744.4c16.9,0,30.6,13.7,30.6,30.6
	V744.4C775,761.3,761.3,775,744.4,775z"/>
<g>
	<g>
		<path class="st1" d="M214.26,698.15c0-7.64,6.31-13.72,14.02-13.72c3.23,0,6.31,1.1,8.66,2.96c0.99,0.72,1.14,2.13,0.42,3.08
			c-0.72,0.91-2.13,1.1-3.08,0.34c-1.63-1.25-3.72-2.05-6-2.05c-2.74,0-5.13,1.03-6.84,2.77c-1.79,1.71-2.85,4.03-2.85,6.61
			c0,2.51,1.06,4.83,2.85,6.54c1.71,1.75,4.1,2.77,6.84,2.77c1.9,0,3.69-0.57,5.21-1.44v-5.21h-5.43c-1.18,0-2.17-0.99-2.17-2.17
			c0-1.22,0.99-2.13,2.17-2.13h7.48c0.04,0,0.04,0,0.04,0c0.04,0,0.04,0,0.04,0c1.22,0,2.2,0.91,2.2,2.13v8.4
			c0,0.27-0.08,0.42-0.11,0.65c-0.04,0.08-0.04,0.11-0.08,0.19v0.04c-0.11,0.34-0.34,0.65-0.72,0.91c-2.39,1.86-5.4,2.96-8.62,2.96
			C220.56,711.79,214.26,705.75,214.26,698.15z"/>
		<path class="st1" d="M267.76,708.63c0.38,1.1-0.23,2.28-1.33,2.66c-0.15,0.04-0.46,0.11-0.84,0.11c0,0,0,0-0.04,0
			c-0.38,0-0.95-0.08-1.48-0.42c-0.49-0.3-0.91-0.8-1.22-1.33c-0.53-1.1-0.8-2.47-0.8-4.56c-0.04-0.72-0.19-1.22-0.46-1.63
			c-0.23-0.42-0.68-0.8-1.14-1.1c-0.8-0.53-1.79-0.84-2.13-0.91h-4.48v8.25c0,1.14-0.95,2.09-2.13,2.09c-1.18,0-2.09-0.95-2.09-2.09
			v-22.42c0-1.18,0.91-2.09,2.09-2.09c0,0,0,0,0.04,0h6.76c4.52,0,8.13,3.65,8.13,8.17c0,2.51-1.14,4.71-2.96,6.23
			c0.49,0.38,0.95,0.84,1.33,1.41c0.76,1.1,1.25,2.51,1.25,4.1c-0.04,1.14,0.08,1.86,0.15,2.24
			C267.04,707.53,267.53,707.99,267.76,708.63z M262.44,693.36c0-2.2-1.75-3.95-3.91-3.95h-4.67v7.83h4.67
			C260.69,697.24,262.44,695.49,262.44,693.36z"/>
		<path class="st1" d="M291.28,705.52h-9.23l-1.86,4.94c-0.34,0.84-1.14,1.33-1.98,1.33c-0.27,0-0.49-0.04-0.72-0.11
			c-1.1-0.42-1.63-1.63-1.25-2.74l8.4-22.38c0.34-0.84,1.18-1.37,2.01-1.33c0.87-0.04,1.67,0.49,2.01,1.33l8.4,22.38
			c0.38,1.1-0.15,2.32-1.25,2.74c-0.19,0.08-0.46,0.11-0.72,0.11c-0.84,0-1.63-0.49-1.94-1.33L291.28,705.52z M289.72,701.34
			l-3.08-8.17l-3.08,8.17H289.72z"/>
		<path class="st1" d="M314.96,701.45h-4.67v8.25c0,1.14-0.95,2.09-2.13,2.09c-1.14,0-2.09-0.95-2.09-2.09v-22.42
			c0-1.18,0.95-2.09,2.09-2.09h0.04h6.76c4.52,0,8.17,3.65,8.17,8.17C323.12,697.81,319.48,701.45,314.96,701.45z M310.28,697.24
			h4.67c2.2,0,3.91-1.75,3.95-3.88c-0.04-2.2-1.75-3.95-3.95-3.95h-4.67V697.24z"/>
		<path class="st1" d="M332.02,709.7v-22.42c0-1.18,0.91-2.09,2.09-2.09s2.13,0.91,2.13,2.09v9.12h9.84v-9.12
			c0-1.18,0.91-2.09,2.09-2.09c1.18,0,2.13,0.91,2.13,2.09v22.42c0,1.18-0.95,2.09-2.13,2.09c-1.18,0-2.09-0.91-2.09-2.09v-9.12
			h-9.84v9.12c0,1.18-0.95,2.09-2.13,2.09S332.02,710.88,332.02,709.7z"/>
		<path class="st1" d="M361.13,687.28c0-1.18,0.91-2.09,2.09-2.09c1.14,0,2.13,0.91,2.13,2.09v22.42c0,1.18-0.99,2.09-2.13,2.09
			c-1.18,0-2.09-0.91-2.09-2.09V687.28z"/>
		<path class="st1" d="M375.07,698.11c0.04-7.52,6.35-13.64,13.94-13.68c3.34,0,6.38,1.1,8.78,2.96c0.91,0.76,1.06,2.09,0.38,3.04
			c-0.76,0.95-2.17,1.1-3.04,0.42c-1.67-1.37-3.76-2.09-6.12-2.09c-2.62,0-5.05,1.06-6.84,2.74c-1.71,1.75-2.77,4.03-2.77,6.61
			c0,2.58,1.06,4.94,2.77,6.61c1.79,1.67,4.22,2.74,6.84,2.74c2.36,0,4.41-0.72,6.12-2.09c0.87-0.65,2.28-0.49,3.04,0.42
			c0.68,0.95,0.53,2.32-0.38,3.04c-2.39,1.86-5.43,2.96-8.78,2.96C381.42,711.79,375.11,705.67,375.07,698.11z"/>
		<path class="st1" d="M424.55,709.7v-22.42c0-1.18,0.91-2.09,2.09-2.09h4.48c7.33,0,13.26,5.96,13.26,13.26
			c0,7.37-5.93,13.34-13.26,13.34h-4.48C425.46,711.79,424.55,710.84,424.55,709.7z M428.76,707.57h2.36
			c5.02-0.04,9.04-4.07,9.04-9.12c0-4.98-4.03-9.04-9.04-9.04h-2.36V707.57z"/>
		<path class="st1" d="M453.77,709.7v-22.42c0-1.18,0.91-2.09,2.09-2.09h0.04c0,0,0,0,0.08,0h12.31c1.1,0,2.09,0.91,2.09,2.09
			c0,1.18-0.99,2.13-2.09,2.13h-10.3v6.95h8.85c1.14,0,2.09,0.99,2.09,2.09c0,1.18-0.95,2.13-2.09,2.13h-8.85v6.99h10.3
			c1.1,0,2.09,0.95,2.09,2.13c0,1.14-0.99,2.09-2.09,2.09h-12.31c-0.08,0-0.08-0.04-0.08-0.04l-0.04,0.04
			C454.68,711.79,453.77,710.84,453.77,709.7z"/>
		<path class="st1" d="M479.27,705.18c0.68-0.84,1.94-0.95,2.77-0.27c1.67,1.37,4.56,2.96,7.26,2.93c1.9,0,3.61-0.57,4.75-1.41
			c1.14-0.84,1.63-1.79,1.63-2.74c0-0.49-0.11-0.84-0.34-1.22c-0.23-0.38-0.57-0.76-1.14-1.14c-1.1-0.72-2.96-1.37-5.2-1.79h-0.08
			c-1.79-0.34-3.46-0.8-4.9-1.48c-1.44-0.68-2.7-1.63-3.53-2.96c-0.57-0.91-0.87-1.98-0.87-3.12c0-2.28,1.29-4.26,3.04-5.55
			c1.79-1.29,4.1-2.01,6.57-2.01c3.65,0,6.34,1.79,8.28,3.04c0.87,0.61,1.14,1.82,0.53,2.7c-0.57,0.91-1.79,1.18-2.7,0.57
			c-1.94-1.29-3.8-2.43-6.12-2.43c-1.71,0-3.23,0.53-4.26,1.29c-1.03,0.76-1.44,1.6-1.44,2.39c0,0.46,0.08,0.76,0.27,1.06
			c0.19,0.3,0.53,0.65,1.03,0.99c0.99,0.68,2.7,1.29,4.75,1.67h0.08c1.94,0.38,3.72,0.87,5.24,1.6c1.56,0.76,2.93,1.75,3.8,3.15
			c0.57,0.91,0.91,2.05,0.91,3.23c0,2.43-1.37,4.52-3.27,5.89c-1.86,1.37-4.33,2.17-7.03,2.17c-4.1-0.04-7.56-2.09-9.73-3.8
			C478.74,707.27,478.62,706.01,479.27,705.18z"/>
		<path class="st1" d="M509.51,687.28c0-1.18,0.91-2.09,2.09-2.09c1.14,0,2.13,0.91,2.13,2.09v22.42c0,1.18-0.99,2.09-2.13,2.09
			c-1.18,0-2.09-0.91-2.09-2.09V687.28z"/>
		<path class="st1" d="M523.46,698.15c0-7.64,6.31-13.72,14.02-13.72c3.23,0,6.31,1.1,8.66,2.96c0.99,0.72,1.14,2.13,0.42,3.08
			c-0.72,0.91-2.13,1.1-3.08,0.34c-1.63-1.25-3.72-2.05-6-2.05c-2.74,0-5.13,1.03-6.84,2.77c-1.79,1.71-2.85,4.03-2.85,6.61
			c0,2.51,1.06,4.83,2.85,6.54c1.71,1.75,4.1,2.77,6.84,2.77c1.9,0,3.68-0.57,5.21-1.44v-5.21h-5.43c-1.18,0-2.17-0.99-2.17-2.17
			c0-1.22,0.99-2.13,2.17-2.13h7.49c0.04,0,0.04,0,0.04,0c0.04,0,0.04,0,0.04,0c1.22,0,2.2,0.91,2.2,2.13v8.4
			c0,0.27-0.08,0.42-0.11,0.65c-0.04,0.08-0.04,0.11-0.08,0.19v0.04c-0.11,0.34-0.34,0.65-0.72,0.91c-2.39,1.86-5.39,2.96-8.62,2.96
			C529.77,711.79,523.46,705.75,523.46,698.15z"/>
		<path class="st1" d="M563.55,709.7c0,1.14-0.95,2.09-2.05,2.09c-1.18,0-2.09-0.95-2.09-2.09v-22.07c0,0,0,0,0-0.04
			c-0.04-0.65,0.27-1.33,0.84-1.75c0.95-0.65,2.24-0.46,2.89,0.46l12.27,16.98v-15.65c0-1.1,0.91-2.05,2.05-2.05
			c1.14,0,2.09,0.95,2.09,2.05v22.07c0,1.14-0.95,2.09-2.09,2.09c-0.61,0-1.18-0.3-1.56-0.76c-0.08-0.08-0.15-0.15-0.19-0.23
			l-12.16-16.87V709.7z"/>
	</g>
</g>
<g class="st2">
	<g>
		<g>
			<path class="st1" d="M134.75,324.99h-12.66c-1.38,0-2.5-1.12-2.5-2.5c0-1.38,1.12-2.5,2.5-2.5h12.66c1.38,0,2.5,1.12,2.5,2.5
				C137.25,323.87,136.13,324.99,134.75,324.99z"/>
		</g>
		<g>
			<path class="st1" d="M108.05,324.99H66.54c-1.38,0-2.5-1.12-2.5-2.5c0-1.38,1.12-2.5,2.5-2.5h41.51c1.38,0,2.5,1.12,2.5,2.5
				C110.55,323.87,109.43,324.99,108.05,324.99z"/>
		</g>
	</g>
	<g>
		<g>
			<path class="st1" d="M611.88,164.17h-19.05c-1.38,0-2.5-1.12-2.5-2.5c0-1.38,1.12-2.5,2.5-2.5h19.05c1.38,0,2.5,1.12,2.5,2.5
				C614.38,163.05,613.26,164.17,611.88,164.17z"/>
		</g>
		<g>
			<path class="st1" d="M571.7,164.17h-62.45c-1.38,0-2.5-1.12-2.5-2.5c0-1.38,1.12-2.5,2.5-2.5h62.45c1.38,0,2.5,1.12,2.5,2.5
				C574.2,163.05,573.08,164.17,571.7,164.17z"/>
		</g>
	</g>
	<g>
		<g>
			<path class="st1" d="M520.83,638.83h-44.75c-1.38,0-2.5-1.12-2.5-2.5c0-1.38,1.12-2.5,2.5-2.5h44.75c1.38,0,2.5,1.12,2.5,2.5
				C523.33,637.71,522.21,638.83,520.83,638.83z"/>
		</g>
		<g>
			<path class="st1" d="M467.08,638.83h-14.5c-1.38,0-2.5-1.12-2.5-2.5c0-1.38,1.12-2.5,2.5-2.5h14.5c1.38,0,2.5,1.12,2.5,2.5
				C469.58,637.71,468.46,638.83,467.08,638.83z"/>
		</g>
		<g>
			<path class="st1" d="M442.58,638.83h-6.5c-1.38,0-2.5-1.12-2.5-2.5c0-1.38,1.12-2.5,2.5-2.5h6.5c1.38,0,2.5,1.12,2.5,2.5
				C445.08,637.71,443.96,638.83,442.58,638.83z"/>
		</g>
	</g>
	<g>
		<g>
			<path class="st1" d="M254.49,182.17h-55.44c-1.38,0-2.5-1.12-2.5-2.5c0-1.38,1.12-2.5,2.5-2.5h55.44c1.38,0,2.5,1.12,2.5,2.5
				C256.99,181.05,255.87,182.17,254.49,182.17z"/>
		</g>
		<g>
			<path class="st1" d="M187.9,182.17h-17.96c-1.38,0-2.5-1.12-2.5-2.5c0-1.38,1.12-2.5,2.5-2.5h17.96c1.38,0,2.5,1.12,2.5,2.5
				C190.4,181.05,189.29,182.17,187.9,182.17z"/>
		</g>
		<g>
			<path class="st1" d="M157.55,182.17h-8.05c-1.38,0-2.5-1.12-2.5-2.5c0-1.38,1.12-2.5,2.5-2.5h8.05c1.38,0,2.5,1.12,2.5,2.5
				C160.05,181.05,158.93,182.17,157.55,182.17z"/>
		</g>
	</g>
	<g>
		<g>
			<path class="st1" d="M723.82,437.13h-55.03c-1.38,0-2.5-1.12-2.5-2.5c0-1.38,1.12-2.5,2.5-2.5h55.03c1.38,0,2.5,1.12,2.5,2.5
				C726.32,436.01,725.21,437.13,723.82,437.13z"/>
		</g>
		<g>
			<path class="st1" d="M745.37,437.13h-7.98c-1.38,0-2.5-1.12-2.5-2.5c0-1.38,1.12-2.5,2.5-2.5h7.98c1.38,0,2.5,1.12,2.5,2.5
				C747.87,436.01,746.75,437.13,745.37,437.13z"/>
		</g>
	</g>
	<g>
		<g>
			<path class="st1" d="M425.81,121.5h-73.28c-1.38,0-2.5-1.12-2.5-2.5c0-1.38,1.12-2.5,2.5-2.5h73.28c1.38,0,2.5,1.12,2.5,2.5
				C428.31,120.38,427.19,121.5,425.81,121.5z"/>
		</g>
		<g>
			<path class="st1" d="M337.84,121.5h-16.16c-1.38,0-2.5-1.12-2.5-2.5c0-1.38,1.12-2.5,2.5-2.5h16.16c1.38,0,2.5,1.12,2.5,2.5
				C340.34,120.38,339.22,121.5,337.84,121.5z"/>
		</g>
	</g>
	<g>
		<g>
			<path class="st1" d="M235.45,616.96h-84.74c-1.38,0-2.5-1.12-2.5-2.5c0-1.38,1.12-2.5,2.5-2.5h84.74c1.38,0,2.5,1.12,2.5,2.5
				C237.95,615.85,236.83,616.96,235.45,616.96z"/>
		</g>
		<g>
			<path class="st1" d="M141.56,616.96h-11.13c-1.38,0-2.5-1.12-2.5-2.5c0-1.38,1.12-2.5,2.5-2.5h11.13c1.38,0,2.5,1.12,2.5,2.5
				C144.06,615.85,142.94,616.96,141.56,616.96z"/>
		</g>
		<g>
			<path class="st1" d="M121.49,616.96h-3.27c-1.38,0-2.5-1.12-2.5-2.5c0-1.38,1.12-2.5,2.5-2.5h3.27c1.38,0,2.5,1.12,2.5,2.5
				C123.99,615.85,122.87,616.96,121.49,616.96z"/>
		</g>
		<g>
			<path class="st1" d="M199.16,626.44h-43.29c-1.38,0-2.5-1.12-2.5-2.5c0-1.38,1.12-2.5,2.5-2.5h43.29c1.38,0,2.5,1.12,2.5,2.5
				C201.66,625.32,200.54,626.44,199.16,626.44z"/>
		</g>
	</g>
	<g>
		<g>
			<g>
				<path class="st1" d="M689.95,258.3c-1.38,0-2.5-1.12-2.5-2.5v-5.57c0-1.38,1.12-2.5,2.5-2.5c1.38,0,2.5,1.12,2.5,2.5v5.57
					C692.45,257.18,691.33,258.3,689.95,258.3z"/>
			</g>
			<g>
				<path class="st1" d="M702.06,253.28c-0.64,0-1.28-0.24-1.77-0.73l-3.94-3.94c-0.98-0.98-0.98-2.56,0-3.54
					c0.98-0.98,2.56-0.98,3.54,0l3.94,3.94c0.98,0.98,0.98,2.56,0,3.54C703.34,253.03,702.7,253.28,702.06,253.28z"/>
			</g>
			<g>
				<path class="st1" d="M707.08,241.17h-5.57c-1.38,0-2.5-1.12-2.5-2.5c0-1.38,1.12-2.5,2.5-2.5h5.57c1.38,0,2.5,1.12,2.5,2.5
					C709.58,240.05,708.46,241.17,707.08,241.17z"/>
			</g>
			<g>
				<path class="st1" d="M698.12,233c-0.64,0-1.28-0.24-1.77-0.73c-0.98-0.98-0.98-2.56,0-3.54l3.94-3.94
					c0.98-0.98,2.56-0.98,3.54,0c0.98,0.98,0.98,2.56,0,3.54l-3.94,3.94C699.4,232.75,698.76,233,698.12,233z"/>
			</g>
			<g>
				<path class="st1" d="M689.95,229.61c-1.38,0-2.5-1.12-2.5-2.5v-5.57c0-1.38,1.12-2.5,2.5-2.5c1.38,0,2.5,1.12,2.5,2.5v5.57
					C692.45,228.49,691.33,229.61,689.95,229.61z"/>
			</g>
			<g>
				<path class="st1" d="M681.78,233c-0.64,0-1.28-0.24-1.77-0.73l-3.94-3.94c-0.98-0.98-0.98-2.56,0-3.54
					c0.98-0.98,2.56-0.98,3.54,0l3.94,3.94c0.98,0.98,0.98,2.56,0,3.54C683.06,232.75,682.42,233,681.78,233z"/>
			</g>
			<g>
				<path class="st1" d="M678.39,241.17h-5.57c-1.38,0-2.5-1.12-2.5-2.5c0-1.38,1.12-2.5,2.5-2.5h5.57c1.38,0,2.5,1.12,2.5,2.5
					C680.89,240.05,679.78,241.17,678.39,241.17z"/>
			</g>
			<g>
				<path class="st1" d="M677.84,253.28c-0.64,0-1.28-0.24-1.77-0.73c-0.98-0.98-0.98-2.56,0-3.54l3.94-3.94
					c0.98-0.98,2.56-0.98,3.54,0c0.98,0.98,0.98,2.56,0,3.54l-3.94,3.94C679.12,253.03,678.48,253.28,677.84,253.28z"/>
			</g>
		</g>
	</g>
	<g>
		<g>
			<path class="st1" d="M89.09,460.87c-1.38,0-2.5-1.12-2.5-2.5v-5.57c0-1.38,1.12-2.5,2.5-2.5c1.38,0,2.5,1.12,2.5,2.5v5.57
				C91.59,459.75,90.47,460.87,89.09,460.87z"/>
		</g>
		<g>
			<path class="st1" d="M80.91,464.26c-0.64,0-1.28-0.24-1.77-0.73l-3.94-3.94c-0.98-0.98-0.98-2.56,0-3.54
				c0.98-0.98,2.56-0.98,3.54,0l3.94,3.94c0.98,0.98,0.98,2.56,0,3.54C82.19,464.01,81.55,464.26,80.91,464.26z"/>
		</g>
		<g>
			<path class="st1" d="M77.53,472.43h-5.57c-1.38,0-2.5-1.12-2.5-2.5c0-1.38,1.12-2.5,2.5-2.5h5.57c1.38,0,2.5,1.12,2.5,2.5
				C80.03,471.31,78.91,472.43,77.53,472.43z"/>
		</g>
		<g>
			<path class="st1" d="M76.97,484.54c-0.64,0-1.28-0.24-1.77-0.73c-0.98-0.98-0.98-2.56,0-3.54l3.94-3.94
				c0.98-0.98,2.56-0.98,3.54,0c0.98,0.98,0.98,2.56,0,3.54l-3.94,3.94C78.25,484.3,77.61,484.54,76.97,484.54z"/>
		</g>
		<g>
			<path class="st1" d="M89.09,489.56c-1.38,0-2.5-1.12-2.5-2.5v-5.57c0-1.38,1.12-2.5,2.5-2.5c1.38,0,2.5,1.12,2.5,2.5v5.57
				C91.59,488.44,90.47,489.56,89.09,489.56z"/>
		</g>
		<g>
			<path class="st1" d="M101.2,484.54c-0.64,0-1.28-0.24-1.77-0.73l-3.94-3.94c-0.98-0.98-0.98-2.56,0-3.54
				c0.98-0.98,2.56-0.98,3.54,0l3.94,3.94c0.98,0.98,0.98,2.56,0,3.54C102.48,484.3,101.84,484.54,101.2,484.54z"/>
		</g>
		<g>
			<path class="st1" d="M106.21,472.43h-5.57c-1.38,0-2.5-1.12-2.5-2.5c0-1.38,1.12-2.5,2.5-2.5h5.57c1.38,0,2.5,1.12,2.5,2.5
				C108.71,471.31,107.6,472.43,106.21,472.43z"/>
		</g>
		<g>
			<path class="st1" d="M97.26,464.26c-0.64,0-1.28-0.24-1.77-0.73c-0.98-0.98-0.98-2.56,0-3.54l3.94-3.94
				c0.98-0.98,2.56-0.98,3.54,0c0.98,0.98,0.98,2.56,0,3.54l-3.94,3.94C98.54,464.01,97.9,464.26,97.26,464.26z"/>
		</g>
	</g>
	<g>
		<g>
			<g>
				<path class="st1" d="M641.11,638.83c-1.38,0-2.5-1.12-2.5-2.5v-5.57c0-1.38,1.12-2.5,2.5-2.5c1.38,0,2.5,1.12,2.5,2.5v5.57
					C643.61,637.71,642.49,638.83,641.11,638.83z"/>
			</g>
			<g>
				<path class="st1" d="M653.22,633.82c-0.64,0-1.28-0.24-1.77-0.73l-3.94-3.94c-0.98-0.98-0.98-2.56,0-3.54
					c0.98-0.98,2.56-0.98,3.54,0l3.94,3.94c0.98,0.98,0.98,2.56,0,3.54C654.5,633.57,653.86,633.82,653.22,633.82z"/>
			</g>
			<g>
				<path class="st1" d="M658.24,621.7h-5.57c-1.38,0-2.5-1.12-2.5-2.5s1.12-2.5,2.5-2.5h5.57c1.38,0,2.5,1.12,2.5,2.5
					S659.62,621.7,658.24,621.7z"/>
			</g>
			<g>
				<path class="st1" d="M649.28,613.53c-0.64,0-1.28-0.24-1.77-0.73c-0.98-0.98-0.98-2.56,0-3.54l3.94-3.94
					c0.98-0.98,2.56-0.98,3.54,0c0.98,0.98,0.98,2.56,0,3.54l-3.94,3.94C650.56,613.29,649.92,613.53,649.28,613.53z"/>
			</g>
			<g>
				<path class="st1" d="M641.11,610.15c-1.38,0-2.5-1.12-2.5-2.5v-5.57c0-1.38,1.12-2.5,2.5-2.5c1.38,0,2.5,1.12,2.5,2.5v5.57
					C643.61,609.03,642.49,610.15,641.11,610.15z"/>
			</g>
			<g>
				<path class="st1" d="M632.94,613.53c-0.64,0-1.28-0.24-1.77-0.73l-3.94-3.94c-0.98-0.98-0.98-2.56,0-3.54
					c0.98-0.98,2.56-0.98,3.54,0l3.94,3.94c0.98,0.98,0.98,2.56,0,3.54C634.22,613.29,633.58,613.53,632.94,613.53z"/>
			</g>
			<g>
				<path class="st1" d="M629.55,621.7h-5.57c-1.38,0-2.5-1.12-2.5-2.5s1.12-2.5,2.5-2.5h5.57c1.38,0,2.5,1.12,2.5,2.5
					S630.93,621.7,629.55,621.7z"/>
			</g>
			<g>
				<path class="st1" d="M629,633.82c-0.64,0-1.28-0.24-1.77-0.73c-0.98-0.98-0.98-2.56,0-3.54l3.94-3.94
					c0.98-0.98,2.56-0.98,3.54,0c0.98,0.98,0.98,2.56,0,3.54l-3.94,3.94C630.28,633.57,629.64,633.82,629,633.82z"/>
			</g>
		</g>
	</g>
</g>
<g>
	<g>
		<g>
			<g>
				<path class="st3" d="M506.4,590v-9.55c0-4.64-3.76-8.4-8.4-8.4H302c-4.64,0-8.4,3.76-8.4,8.4V590h18.18h176.44H506.4z"/>
			</g>
			<g>
				<rect x="293.6" y="582.13" class="st4" width="212.79" height="7.87"/>
			</g>
			<g>
				<path class="st1" d="M506.4,592.5H293.6c-1.38,0-2.5-1.12-2.5-2.5v-9.55c0-6.01,4.89-10.9,10.9-10.9h196
					c6.01,0,10.9,4.89,10.9,10.9V590C508.9,591.38,507.78,592.5,506.4,592.5z M296.1,587.5H503.9v-7.05c0-3.25-2.65-5.9-5.9-5.9H302
					c-3.25,0-5.9,2.65-5.9,5.9V587.5z"/>
			</g>
		</g>
		<g>
			<g>
				<rect x="348.21" y="528.63" class="st3" width="103.58" height="43.43"/>
			</g>
			<g>
				<rect x="348.21" y="528.63" class="st4" width="103.58" height="12.15"/>
			</g>
			<g>
				<rect x="348.21" y="564.19" class="st4" width="103.58" height="7.87"/>
			</g>
			<g>
				<path class="st1" d="M451.79,574.56H348.21c-1.38,0-2.5-1.12-2.5-2.5v-43.43c0-1.38,1.12-2.5,2.5-2.5h103.58
					c1.38,0,2.5,1.12,2.5,2.5v43.43C454.29,573.44,453.17,574.56,451.79,574.56z M350.71,569.56h98.58v-38.43h-98.58V569.56z"/>
			</g>
		</g>
		<g>
			<g>
				<path class="st3" d="M164.64,477.01v39.45c0,6.72,5.45,12.17,12.17,12.17h446.39c6.72,0,12.17-5.45,12.17-12.17v-39.45h-26.32
					H190.95H164.64z"/>
			</g>
			<g>
				<path class="st3" d="M635.36,242.33v-11.67c0-6.72-5.45-12.17-12.17-12.17H176.81c-6.72,0-12.17,5.45-12.17,12.17v11.67H635.36z
					"/>
			</g>
			<g>
				<rect x="164.64" y="242.33" class="st5" width="470.72" height="234.67"/>
			</g>
			<g>
				<path class="st6" d="M176.81,528.63h446.39c0.06,0,0.11-0.01,0.17-0.01c0.34,0,0.67-0.03,1-0.06
					c5.78-0.55,10.38-5.14,10.93-10.93c0.03-0.33,0.06-0.66,0.06-1c0-0.06,0.01-0.11,0.01-0.17v-11.67V270.12v-39.45
					c0-6.32-4.83-11.51-11-12.1v295.94c0,1.72-1.39,3.11-3.11,3.11H164.71C165.3,523.8,170.48,528.63,176.81,528.63z"/>
			</g>
			<g>
				<path class="st7" d="M623.19,218.5H176.81c-0.06,0-0.11,0.01-0.17,0.01c-0.34,0-0.67,0.03-1,0.06
					c-5.78,0.55-10.38,5.14-10.93,10.93c-0.03,0.33-0.06,0.66-0.06,1c0,0.06-0.01,0.11-0.01,0.17v11.67v234.67v39.45
					c0,6.32,4.83,11.51,11,12.1V232.61c0-1.72,1.39-3.11,3.11-3.11h456.54C634.7,223.33,629.52,218.5,623.19,218.5z"/>
			</g>
			<g>
				<path class="st1" d="M623.19,531.13H176.81c-8.09,0-14.67-6.58-14.67-14.67v-39.45c0-1.38,1.12-2.5,2.5-2.5h470.72
					c1.38,0,2.5,1.12,2.5,2.5v39.45C637.86,524.55,631.28,531.13,623.19,531.13z M167.14,479.51v36.95c0,5.33,4.34,9.67,9.67,9.67
					h446.39c5.33,0,9.67-4.34,9.67-9.67v-36.95H167.14z"/>
			</g>
			<g>
				<g class="st8">
					<g>
						<rect x="164.64" y="262.17" class="st9" width="470.72" height="3"/>
					</g>
					<g>
						<rect x="164.64" y="283.5" class="st9" width="470.72" height="3"/>
					</g>
					<g>
						<rect x="164.64" y="304.83" class="st9" width="470.72" height="3"/>
					</g>
					<g>
						<rect x="164.64" y="326.17" class="st9" width="470.72" height="3"/>
					</g>
					<g>
						<rect x="164.64" y="347.5" class="st9" width="470.72" height="3"/>
					</g>
					<g>
						<rect x="164.64" y="368.84" class="st9" width="470.72" height="3"/>
					</g>
					<g>
						<rect x="164.64" y="390.17" class="st9" width="470.72" height="3"/>
					</g>
					<g>
						<rect x="164.64" y="411.5" class="st9" width="470.72" height="3"/>
					</g>
					<g>
						<rect x="164.64" y="432.84" class="st9" width="470.72" height="3"/>
					</g>
					<g>
						<rect x="164.64" y="454.17" class="st9" width="470.72" height="3"/>
					</g>
				</g>
				<g class="st8">
					<g>
						<rect x="185.55" y="242.33" class="st9" width="3" height="234.67"/>
					</g>
					<g>
						<rect x="207.97" y="242.33" class="st9" width="3" height="234.67"/>
					</g>
					<g>
						<rect x="230.38" y="242.33" class="st9" width="3" height="234.67"/>
					</g>
					<g>
						<rect x="252.8" y="242.33" class="st9" width="3" height="234.67"/>
					</g>
					<g>
						<rect x="275.22" y="242.33" class="st9" width="3" height="234.67"/>
					</g>
					<g>
						<rect x="297.63" y="242.33" class="st9" width="3" height="234.67"/>
					</g>
					<g>
						<rect x="320.05" y="242.33" class="st9" width="3" height="234.67"/>
					</g>
					<g>
						<rect x="342.46" y="242.33" class="st9" width="3" height="234.67"/>
					</g>
					<g>
						<rect x="364.88" y="242.33" class="st9" width="3" height="234.67"/>
					</g>
					<g>
						<rect x="387.29" y="242.33" class="st9" width="3" height="234.67"/>
					</g>
					<g>
						<rect x="409.71" y="242.33" class="st9" width="3" height="234.67"/>
					</g>
					<g>
						<rect x="432.12" y="242.33" class="st9" width="3" height="234.67"/>
					</g>
					<g>
						<rect x="454.54" y="242.33" class="st9" width="3" height="234.67"/>
					</g>
					<g>
						<rect x="476.95" y="242.33" class="st9" width="3" height="234.67"/>
					</g>
					<g>
						<rect x="499.37" y="242.33" class="st9" width="3" height="234.67"/>
					</g>
					<g>
						<rect x="521.79" y="242.33" class="st9" width="3" height="234.67"/>
					</g>
					<g>
						<rect x="544.2" y="242.33" class="st9" width="3" height="234.67"/>
					</g>
					<g>
						<rect x="566.62" y="242.33" class="st9" width="3" height="234.67"/>
					</g>
					<g>
						<rect x="589.03" y="242.33" class="st9" width="3" height="234.67"/>
					</g>
					<g>
						<rect x="611.45" y="242.33" class="st9" width="3" height="234.67"/>
					</g>
				</g>
			</g>
			<g>
				<path class="st1" d="M635.36,479.51H164.64c-1.38,0-2.5-1.12-2.5-2.5V242.33c0-1.38,1.12-2.5,2.5-2.5h470.72
					c1.38,0,2.5,1.12,2.5,2.5v234.67C637.86,478.39,636.74,479.51,635.36,479.51z M167.14,474.51h465.72V244.83H167.14V474.51z"/>
			</g>
			<g>
				<path class="st1" d="M635.36,244.83H164.64c-1.38,0-2.5-1.12-2.5-2.5v-11.67c0-8.09,6.58-14.67,14.67-14.67h446.39
					c8.09,0,14.67,6.58,14.67,14.67v11.67C637.86,243.71,636.74,244.83,635.36,244.83z M167.14,239.83h465.72v-9.17
					c0-5.33-4.34-9.67-9.67-9.67H176.81c-5.33,0-9.67,4.34-9.67,9.67V239.83z"/>
			</g>
		</g>
	</g>
	<g>
		<g>
			<path class="st1" d="M590.53,592.5H191c-1.38,0-2.5-1.12-2.5-2.5s1.12-2.5,2.5-2.5h399.53c1.38,0,2.5,1.12,2.5,2.5
				S591.91,592.5,590.53,592.5z"/>
		</g>
	</g>
	<g>
		<g>
			<path class="st1" d="M400,294.35c-41.15,0-79.6-18.39-105.48-50.45c-0.87-1.07-0.7-2.65,0.38-3.52c1.08-0.87,2.65-0.7,3.52,0.38
				c24.93,30.88,61.95,48.59,101.59,48.59c1.38,0,2.5,1.12,2.5,2.5C402.5,293.23,401.38,294.35,400,294.35z"/>
		</g>
		<g>
			<path class="st1" d="M527.63,389.84c-1.08,0-2.08-0.71-2.4-1.8c-16.19-55.16-67.68-93.69-125.23-93.69c-1.38,0-2.5-1.12-2.5-2.5
				c0-1.38,1.12-2.5,2.5-2.5c29.87,0,58.2,9.53,81.91,27.56c22.95,17.45,40.04,42.21,48.11,69.72c0.39,1.33-0.37,2.71-1.69,3.1
				C528.1,389.8,527.86,389.84,527.63,389.84z"/>
		</g>
		<g>
			<path class="st1" d="M518.91,294.35H400c-1.38,0-2.5-1.12-2.5-2.5c0-1.38,1.12-2.5,2.5-2.5h118.91c1.38,0,2.5,1.12,2.5,2.5
				C521.41,293.23,520.3,294.35,518.91,294.35z"/>
		</g>
		<g>
			<circle class="st9" cx="527.63" cy="291.85" r="8.71"/>
		</g>
		<g>
			<path class="st1" d="M527.63,303.06c-6.18,0-11.21-5.03-11.21-11.21c0-6.18,5.03-11.21,11.21-11.21
				c6.18,0,11.21,5.03,11.21,11.21C538.84,298.03,533.81,303.06,527.63,303.06z M527.63,285.64c-3.42,0-6.21,2.79-6.21,6.21
				c0,3.43,2.79,6.21,6.21,6.21c3.42,0,6.21-2.79,6.21-6.21C533.84,288.42,531.05,285.64,527.63,285.64z"/>
		</g>
		<g>
			<path class="st1" d="M400,294.35H281.09c-1.38,0-2.5-1.12-2.5-2.5c0-1.38,1.12-2.5,2.5-2.5H400c1.38,0,2.5,1.12,2.5,2.5
				C402.5,293.23,401.38,294.35,400,294.35z"/>
		</g>
		<g>
			<circle class="st9" cx="272.37" cy="291.85" r="8.71"/>
		</g>
		<g>
			<path class="st1" d="M272.37,303.06c-6.18,0-11.21-5.03-11.21-11.21c0-6.18,5.03-11.21,11.21-11.21
				c6.18,0,11.21,5.03,11.21,11.21C283.59,298.03,278.56,303.06,272.37,303.06z M272.37,285.64c-3.43,0-6.21,2.79-6.21,6.21
				c0,3.43,2.79,6.21,6.21,6.21c3.43,0,6.21-2.79,6.21-6.21C278.59,288.42,275.8,285.64,272.37,285.64z"/>
		</g>
		<g>
			<rect x="519.3" y="379" class="st9" width="16.66" height="16.66"/>
		</g>
		<g>
			<path class="st1" d="M535.96,398.17H519.3c-1.38,0-2.5-1.12-2.5-2.5V379c0-1.38,1.12-2.5,2.5-2.5h16.66c1.38,0,2.5,1.12,2.5,2.5
				v16.66C538.46,397.05,537.34,398.17,535.96,398.17z M521.8,393.17h11.66V381.5H521.8V393.17z"/>
		</g>
		<g>
			<rect x="391.63" y="283.52" class="st9" width="16.66" height="16.66"/>
		</g>
		<g>
			<rect x="391.63" y="283.52" class="st10" width="16.66" height="16.66"/>
			<path class="st1" d="M408.3,302.68h-16.66c-1.38,0-2.5-1.12-2.5-2.5v-16.66c0-1.38,1.12-2.5,2.5-2.5h16.66
				c1.38,0,2.5,1.12,2.5,2.5v16.66C410.8,301.56,409.68,302.68,408.3,302.68z M394.13,297.68h11.66v-11.66h-11.66V297.68z"/>
		</g>
	</g>
	<g>
		<g>
			<g>
				<path class="st3" d="M408,455.56c0,0,16.85,0,26.25,0c3.65-24.72,17.61-47.57,20.03-51.38c0.22-0.34,0.21-0.76-0.02-1.09
					c-3.31-4.73-27.3-40.25-36.39-88.82c-2.89,0-9.87,0-9.87,0s-6.98,0-9.87,0c-9.77,52.22-36.77,89.36-36.77,89.36
					s16.38,24.84,20.39,51.93C391.15,455.56,408,455.56,408,455.56z M408,401.09c4.78,0,8.65,3.87,8.65,8.65
					c0,4.78-3.87,8.65-8.65,8.65c-4.78,0-8.65-3.87-8.65-8.65C399.35,404.97,403.22,401.09,408,401.09z"/>
			</g>
			<g>
				<rect x="381.75" y="455.56" class="st3" width="52.5" height="21.45"/>
			</g>
		</g>
		<g>
			<g>
				<path class="st11" d="M409.87,314.26H400v86.83c4.78,0,8.65,3.87,8.65,8.65c0,4.78-3.87,8.65-8.65,8.65v37.16h26.25
					c3.65-24.72,17.61-47.57,20.03-51.38c0.22-0.34,0.21-0.76-0.02-1.09C442.94,398.35,418.96,362.83,409.87,314.26z"/>
			</g>
			<g>
				<path class="st3" d="M409.87,314.26H400v86.83c4.78,0,8.65,3.87,8.65,8.65c0,4.78-3.87,8.65-8.65,8.65v37.16h26.25
					c3.65-24.72,17.61-47.57,20.03-51.38c0.22-0.34,0.21-0.76-0.02-1.09C442.94,398.35,418.96,362.83,409.87,314.26z"/>
			</g>
			<g>
				<path class="st11" d="M391.35,409.74c0-4.78,3.87-8.65,8.65-8.65v-86.83h-9.87c-9.09,48.57-33.08,84.09-36.39,88.82
					c-0.23,0.33-0.24,0.75-0.02,1.09c2.42,3.81,16.38,26.66,20.03,51.38H400v-37.16C395.22,418.39,391.35,414.52,391.35,409.74z"/>
			</g>
			<g>
				<rect x="373.75" y="455.56" class="st12" width="52.5" height="21.45"/>
			</g>
			<g>
				<path class="st3" d="M446.28,404.18c0.21-0.34,0.21-0.76-0.03-1.09c-1.64-2.35-8.37-12.27-15.85-27.6
					c-2.53-5.19-5.15-11.01-7.68-17.36c-0.51-1.27-1.01-2.56-1.51-3.87c-4.35-11.44-8.34-24.48-11.08-38.64
					c6.55,52,26.37,88,26.37,88.01l0,0l0,0l0,0c0,0-1.94,2.94-4.64,7.89c-1.72,3.15-3.75,7.12-5.79,11.67
					c-1.17,2.6-2.34,5.39-3.45,8.32c-1.12,2.93-2.18,6.02-3.13,9.2c-0.24,0.8-0.47,1.6-0.69,2.4c-0.45,1.61-0.87,3.25-1.24,4.91
					c-0.57,2.48-1.05,5-1.43,7.54h10.13c0.38-2.54,0.86-5.06,1.43-7.54c0.38-1.65,0.8-3.29,1.24-4.91c0.67-2.42,1.41-4.79,2.2-7.1
					c0.52-1.53,1.07-3.04,1.63-4.51c1.12-2.93,2.29-5.72,3.45-8.32c0.87-1.95,1.75-3.79,2.6-5.51c0.42-0.85,0.83-1.66,1.23-2.45
					c0.68-1.33,1.35-2.58,1.96-3.71c0.88-1.61,1.67-3,2.35-4.16c0.15-0.26,0.3-0.51,0.44-0.75
					C445.45,405.5,445.97,404.68,446.28,404.18z"/>
			</g>
			<g>
				<path class="st3" d="M426.25,455.56h-10.13v12.96c0,0.68-0.55,1.23-1.23,1.23h-41.14v7.26h42.37h10.13v-7.26V455.56
					L426.25,455.56z"/>
			</g>
			<g>
				<path class="st1" d="M428.41,458.06h-56.82l-0.32-2.13c-3.55-24.06-17.01-46.21-19.67-50.41c-0.76-1.19-0.72-2.71,0.09-3.87
					c2.73-3.9,26.93-39.5,35.98-87.85l0.38-2.04h23.89l0.38,2.04c9.05,48.35,33.25,83.95,35.98,87.85c0.81,1.16,0.84,2.67,0.09,3.87
					c-2.66,4.2-16.11,26.35-19.67,50.41L428.41,458.06z M375.88,453.06h48.24c3.92-22.88,15.95-43.6,19.52-49.37
					c-4.57-6.7-26.78-41.01-35.83-86.93h-15.6c-9.05,45.91-31.27,80.22-35.83,86.93C359.93,409.46,371.96,430.17,375.88,453.06z"/>
			</g>
			<g>
				<path class="st1" d="M400,420.89c-6.15,0-11.15-5-11.15-11.15c0-6.15,5-11.15,11.15-11.15c6.15,0,11.15,5,11.15,11.15
					C411.15,415.89,406.15,420.89,400,420.89z M400,403.59c-3.39,0-6.15,2.76-6.15,6.15c0,3.39,2.76,6.15,6.15,6.15
					c3.39,0,6.15-2.76,6.15-6.15C406.15,406.35,403.39,403.59,400,403.59z"/>
			</g>
			<g>
				<path class="st1" d="M428.75,479.51h-57.5v-26.45h57.5V479.51z M376.25,474.51h47.5v-16.45h-47.5V474.51z"/>
			</g>
			<g>
				<rect x="397.5" y="314.26" class="st1" width="5" height="86.83"/>
			</g>
		</g>
	</g>
	<g>
		<g>
			<path class="st13" d="M270.87,479.19L270.87,479.19v-3.76v-40.11v0v-39.44v-0.67c0,0-0.02,0.03-0.06,0.07v0
				c-0.04-0.23-0.11-0.45-0.2-0.66c-0.02-0.04-0.04-0.09-0.06-0.13c-0.1-0.21-0.21-0.42-0.35-0.61l-14.62-19.62l-8.39-11.27
				c-0.6-0.81-1.81-0.81-2.41,0l-8.39,11.27l-14.62,19.62c-0.14,0.19-0.25,0.4-0.35,0.61c-0.02,0.04-0.04,0.09-0.05,0.13
				c-0.09,0.21-0.16,0.43-0.2,0.66v0c-0.04-0.04-0.06-0.07-0.06-0.07v0.67v39.44v0v40.11v3.76v0v49.44h49.76V479.19z"/>
		</g>
		<g>
			<g>
				<path class="st14" d="M212.78,393.87L237,361.36l24.21,32.51c0.43,0.58,0.66,1.28,0.66,2v83.32V586c-1.56,1.56-2.44,2.44-4,4
					H237h-20.88c-1.56-1.56-2.44-2.44-4-4V479.19v-83.32C212.12,395.15,212.35,394.45,212.78,393.87z"/>
			</g>
			<g>
				<path class="st14" d="M212.78,393.87c-0.31,0.42-0.51,0.9-0.6,1.4c-0.04,0.2-0.06,0.4-0.06,0.6v39.44v40.12v3.76v53.52V586
					c1.56,1.56,2.44,2.44,4,4h4.29h8.29v-57.29v-57.29v-40.12V395.2l8.29-33.84L212.78,393.87z"/>
			</g>
			<g>
				<path class="st14" d="M261.21,393.87c0.31,0.42,0.51,0.9,0.6,1.4c0.04,0.2,0.06,0.4,0.06,0.6v39.44v40.12v3.76v53.52V586
					c-1.56,1.56-2.44,2.44-4,4h-4.29h-8.29v-57.29v-57.29v-40.12V395.2L237,361.36L261.21,393.87z"/>
			</g>
			<g>
				<path class="st15" d="M245.29,395.2c0,0-3.11,3.69-8.29,3.69c-5.18,0-8.29-3.69-8.29-3.69v40.11v40.12v57.29V590H237h8.29
					v-57.29v-57.29v-40.12V395.2z"/>
			</g>
			<g>
				<path class="st16" d="M261.87,395.2c0,0-3.11,3.69-8.29,3.69c-5.18,0-8.29-3.69-8.29-3.69v40.11v40.12v57.29V590h8.29h4.29
					c1.56-1.56,2.44-2.44,4-4v-53.29v-57.29v-40.12V395.2z"/>
			</g>
			<g>
				<path class="st17" d="M228.7,395.2c0,0-3.11,3.69-8.29,3.69s-8.29-3.69-8.29-3.69v40.11v40.12v57.29V586
					c1.56,1.56,2.44,2.44,4,4h4.29h8.29v-57.29v-57.29v-40.12V395.2z"/>
			</g>
			<g>
				<path class="st1" d="M257.87,592.5h-41.76c-0.66,0-1.3-0.26-1.77-0.73l-4-4c-0.47-0.47-0.73-1.1-0.73-1.77V395.87
					c0-1.25,0.41-2.49,1.16-3.5c0,0,0,0,0,0l24.21-32.51c0.47-0.63,1.22-1.01,2-1.01c0.79,0,1.53,0.37,2,1.01l24.21,32.51
					c0.75,1,1.16,2.25,1.16,3.5V586c0,0.66-0.26,1.3-0.73,1.77l-4,4C259.17,592.24,258.54,592.5,257.87,592.5z M217.15,587.5h39.69
					l2.54-2.54V395.87c0-0.19-0.06-0.36-0.17-0.51L237,365.55l-22.21,29.81c-0.11,0.15-0.17,0.33-0.17,0.51v189.09L217.15,587.5z"/>
			</g>
			<g>
				<path class="st18" d="M212.12,549.81V586c1.56,1.56,2.44,2.44,4,4H237h20.88c1.56-1.56,2.44-2.44,4-4v-36.19H212.12z"/>
			</g>
			<g>
				<path class="st19" d="M245.29,549.81V590h12.59c1.56-1.56,2.44-2.44,4-4v-36.19H245.29z"/>
			</g>
			<g>
				<path class="st7" d="M228.7,549.81V590h-12.59c-1.56-1.56-2.44-2.44-4-4v-36.19H228.7z"/>
			</g>
			<g>
				<path class="st1" d="M257.87,592.5h-41.76c-0.66,0-1.3-0.26-1.77-0.73l-4-4c-0.47-0.47-0.73-1.1-0.73-1.77v-36.19
					c0-1.38,1.12-2.5,2.5-2.5h49.76c1.38,0,2.5,1.12,2.5,2.5V586c0,0.66-0.26,1.3-0.73,1.77l-4,4
					C259.17,592.24,258.54,592.5,257.87,592.5z M217.15,587.5h39.69l2.54-2.54v-32.66h-44.76v32.66L217.15,587.5z"/>
			</g>
			<g>
				<polygon class="st1" points="237,361.36 227.4,374.24 246.59,374.24 				"/>
			</g>
		</g>
	</g>
	<g>
		<g>
			<g>
				<polygon class="st13" points="292.01,590 333.5,590 341.23,590 341.23,572.06 292.01,572.06 				"/>
			</g>
			<g>
				<path class="st13" d="M341.23,318.61c0-1.44-1.17-2.61-2.61-2.61h-5.11h-41.49v212.63h49.22V318.61z M316.62,343.83
					c-3.87,0-7-3.13-7-7c0-3.87,3.13-7,7-7c3.87,0,7,3.13,7,7C323.62,340.69,320.48,343.83,316.62,343.83z"/>
			</g>
		</g>
		<g>
			<g>
				<path class="st10" d="M283.01,316v274h49.22V316H283.01z M307.62,343.83c-3.87,0-7-3.13-7-7c0-3.87,3.13-7,7-7
					c3.87,0,7,3.13,7,7C314.62,340.69,311.48,343.83,307.62,343.83z"/>
			</g>
			<g>
				<rect x="324.5" y="316" class="st6" width="7.73" height="274"/>
			</g>
			<g>
				<rect x="283.01" y="316" class="st7" width="7.73" height="274"/>
			</g>
			<g>
				<path class="st1" d="M332.23,592.5h-49.22c-1.38,0-2.5-1.12-2.5-2.5V316c0-1.38,1.12-2.5,2.5-2.5h49.22c1.38,0,2.5,1.12,2.5,2.5
					v274C334.73,591.38,333.61,592.5,332.23,592.5z M285.51,587.5h44.22v-269h-44.22V587.5z M307.62,346.33
					c-5.24,0-9.5-4.26-9.5-9.5c0-5.24,4.26-9.5,9.5-9.5c5.24,0,9.5,4.26,9.5,9.5C317.12,342.06,312.86,346.33,307.62,346.33z
					 M307.62,332.33c-2.48,0-4.5,2.02-4.5,4.5c0,2.48,2.02,4.5,4.5,4.5c2.48,0,4.5-2.02,4.5-4.5
					C312.12,334.35,310.1,332.33,307.62,332.33z"/>
			</g>
			<g>
				<g>
					<path class="st1" d="M303.25,364.67h-20.24c-1.38,0-2.5-1.12-2.5-2.5s1.12-2.5,2.5-2.5h20.24c1.38,0,2.5,1.12,2.5,2.5
						S304.63,364.67,303.25,364.67z"/>
				</g>
				<g>
					<path class="st1" d="M298.01,382.15h-15.01c-1.38,0-2.5-1.12-2.5-2.5c0-1.38,1.12-2.5,2.5-2.5h15.01c1.38,0,2.5,1.12,2.5,2.5
						C300.51,381.03,299.39,382.15,298.01,382.15z"/>
				</g>
				<g>
					<path class="st1" d="M298.01,399.63h-15.01c-1.38,0-2.5-1.12-2.5-2.5c0-1.38,1.12-2.5,2.5-2.5h15.01c1.38,0,2.5,1.12,2.5,2.5
						C300.51,398.51,299.39,399.63,298.01,399.63z"/>
				</g>
				<g>
					<path class="st1" d="M303.25,417.11h-20.24c-1.38,0-2.5-1.12-2.5-2.5c0-1.38,1.12-2.5,2.5-2.5h20.24c1.38,0,2.5,1.12,2.5,2.5
						C305.75,415.99,304.63,417.11,303.25,417.11z"/>
				</g>
				<g>
					<path class="st1" d="M298.01,434.59h-15.01c-1.38,0-2.5-1.12-2.5-2.5c0-1.38,1.12-2.5,2.5-2.5h15.01c1.38,0,2.5,1.12,2.5,2.5
						C300.51,433.47,299.39,434.59,298.01,434.59z"/>
				</g>
				<g>
					<path class="st1" d="M298.01,452.07h-15.01c-1.38,0-2.5-1.12-2.5-2.5c0-1.38,1.12-2.5,2.5-2.5h15.01c1.38,0,2.5,1.12,2.5,2.5
						C300.51,450.95,299.39,452.07,298.01,452.07z"/>
				</g>
				<g>
					<path class="st1" d="M303.25,469.55h-20.24c-1.38,0-2.5-1.12-2.5-2.5c0-1.38,1.12-2.5,2.5-2.5h20.24c1.38,0,2.5,1.12,2.5,2.5
						C305.75,468.43,304.63,469.55,303.25,469.55z"/>
				</g>
				<g>
					<path class="st1" d="M298.01,487.03h-15.01c-1.38,0-2.5-1.12-2.5-2.5s1.12-2.5,2.5-2.5h15.01c1.38,0,2.5,1.12,2.5,2.5
						S299.39,487.03,298.01,487.03z"/>
				</g>
				<g>
					<path class="st1" d="M298.01,504.51h-15.01c-1.38,0-2.5-1.12-2.5-2.5c0-1.38,1.12-2.5,2.5-2.5h15.01c1.38,0,2.5,1.12,2.5,2.5
						C300.51,503.39,299.39,504.51,298.01,504.51z"/>
				</g>
				<g>
					<path class="st1" d="M303.25,521.99h-20.24c-1.38,0-2.5-1.12-2.5-2.5c0-1.38,1.12-2.5,2.5-2.5h20.24c1.38,0,2.5,1.12,2.5,2.5
						C305.75,520.87,304.63,521.99,303.25,521.99z"/>
				</g>
				<g>
					<path class="st1" d="M298.01,539.47h-15.01c-1.38,0-2.5-1.12-2.5-2.5s1.12-2.5,2.5-2.5h15.01c1.38,0,2.5,1.12,2.5,2.5
						S299.39,539.47,298.01,539.47z"/>
				</g>
				<g>
					<path class="st1" d="M298.01,556.95h-15.01c-1.38,0-2.5-1.12-2.5-2.5c0-1.38,1.12-2.5,2.5-2.5h15.01c1.38,0,2.5,1.12,2.5,2.5
						C300.51,555.83,299.39,556.95,298.01,556.95z"/>
				</g>
				<g>
					<path class="st1" d="M303.25,574.43h-20.24c-1.38,0-2.5-1.12-2.5-2.5c0-1.38,1.12-2.5,2.5-2.5h20.24c1.38,0,2.5,1.12,2.5,2.5
						C305.75,573.31,304.63,574.43,303.25,574.43z"/>
				</g>
			</g>
		</g>
	</g>
	<g>
		<g>
			<path class="st13" d="M596.39,487.72c0-31.78-25.76-57.54-57.54-57.54s-57.54,25.76-57.54,57.54c0,19.76,8.36,31.11,16.43,40.91
				h82.21C588.03,518.82,596.39,507.48,596.39,487.72z"/>
		</g>
		<g>
			<g>
				<g>
					<path class="st15" d="M529.85,430.18c-31.78,0-57.54,25.76-57.54,57.54c0,38.21,31.26,44.97,31.26,69.91h26.28h26.28
						c0-24.94,31.26-31.7,31.26-69.91C587.39,455.94,561.63,430.18,529.85,430.18z"/>
				</g>
				<g>
					
						<ellipse transform="matrix(0.3717 -0.9284 0.9284 0.3717 -119.8502 798.3033)" class="st20" cx="529.85" cy="487.69" rx="48.1" ry="48.1"/>
				</g>
				<g>
					<path class="st21" d="M551.6,590h-43.51c-1.77-1.77-2.76-2.76-4.53-4.53v-27.85h52.57v27.85
						C554.36,587.24,553.37,588.23,551.6,590z"/>
				</g>
				<g>
					<path class="st1" d="M556.13,559.88h-52.57c-1.24,0-2.25-1.01-2.25-2.25c0-10.33-5.85-17.38-12.63-25.53
						c-8.73-10.51-18.63-22.43-18.63-44.38c0-32.97,26.82-59.79,59.79-59.79c32.97,0,59.79,26.82,59.79,59.79
						c0,21.95-9.9,33.86-18.63,44.38c-6.78,8.16-12.63,15.2-12.63,25.53C558.38,558.87,557.37,559.88,556.13,559.88z M505.73,555.38
						h48.23c0.77-10.73,7.01-18.24,13.58-26.16c8.65-10.41,17.59-21.18,17.59-41.5c0-30.49-24.8-55.29-55.29-55.29
						s-55.29,24.8-55.29,55.29c0,20.32,8.94,31.09,17.59,41.5C498.73,537.14,504.96,544.65,505.73,555.38z"/>
				</g>
				<g>
					<g>
						<path class="st9" d="M511.14,445.64c-0.88,0-1.71-0.52-2.07-1.37c-0.49-1.14,0.05-2.46,1.19-2.95
							c6.21-2.63,12.8-3.97,19.59-3.97c1.24,0,2.25,1.01,2.25,2.25s-1.01,2.25-2.25,2.25c-6.18,0-12.18,1.21-17.83,3.61
							C511.73,445.58,511.43,445.64,511.14,445.64z"/>
					</g>
					<g>
						<path class="st9" d="M481.73,489.97c-1.24,0-2.25-1.01-2.25-2.25c0-17.6,8.98-33.65,24.02-42.91c1.06-0.65,2.44-0.32,3.1,0.74
							c0.65,1.06,0.32,2.44-0.74,3.1c-13.7,8.44-21.88,23.05-21.88,39.08C483.98,488.96,482.97,489.97,481.73,489.97z"/>
					</g>
				</g>
				<g>
					<path class="st1" d="M533.69,575.42h-29.8c-1.24,0-2.25-1.01-2.25-2.25c0-1.24,1.01-2.25,2.25-2.25h29.8
						c1.24,0,2.25,1.01,2.25,2.25C535.94,574.41,534.93,575.42,533.69,575.42z"/>
				</g>
				<g>
					<path class="st22" d="M544.43,557.63v25.21c-1.03,1.03-1.61,1.61-2.63,2.63h-38.24l4.53,4.53h36.34h7.17
						c1.77-1.77,2.76-2.76,4.53-4.53v-27.85H544.43z"/>
				</g>
				<g>
					<path class="st1" d="M538.71,567.65h-39.85c-1.24,0-2.25-1.01-2.25-2.25c0-1.24,1.01-2.25,2.25-2.25h39.85
						c1.24,0,2.25,1.01,2.25,2.25C540.96,566.64,539.96,567.65,538.71,567.65z"/>
				</g>
				<g>
					<path class="st1" d="M538.71,583.2h-39.85c-1.24,0-2.25-1.01-2.25-2.25s1.01-2.25,2.25-2.25h39.85c1.24,0,2.25,1.01,2.25,2.25
						S539.96,583.2,538.71,583.2z"/>
				</g>
				<g>
					<path class="st1" d="M551.6,592.25h-43.51c-0.6,0-1.17-0.24-1.59-0.66l-4.53-4.53c-0.42-0.42-0.66-0.99-0.66-1.59v-27.85
						c0-1.24,1.01-2.25,2.25-2.25h52.57c1.24,0,2.25,1.01,2.25,2.25v27.85c0,0.6-0.24,1.17-0.66,1.59l-4.53,4.53
						C552.77,592.01,552.2,592.25,551.6,592.25z M509.02,587.75h41.65l3.21-3.21v-24.67h-48.07v24.67L509.02,587.75z"/>
				</g>
				<g>
					<path class="st1" d="M560.83,575.42h-11.66c-1.24,0-2.25-1.01-2.25-2.25c0-1.24,1.01-2.25,2.25-2.25h11.66
						c1.24,0,2.25,1.01,2.25,2.25C563.08,574.41,562.08,575.42,560.83,575.42z"/>
				</g>
			</g>
			<g>
				<g>
					<path class="st1" d="M529.85,420.23c-1.24,0-2.25-1.01-2.25-2.25V408c0-1.24,1.01-2.25,2.25-2.25s2.25,1.01,2.25,2.25v9.98
						C532.1,419.22,531.09,420.23,529.85,420.23z"/>
				</g>
				<g>
					<path class="st1" d="M495.02,429.56c-0.78,0-1.53-0.4-1.95-1.12l-4.99-8.64c-0.62-1.08-0.25-2.45,0.82-3.07
						c1.08-0.62,2.45-0.25,3.07,0.82l4.99,8.64c0.62,1.08,0.25,2.45-0.82,3.07C495.78,429.46,495.4,429.56,495.02,429.56z"/>
				</g>
				<g>
					<path class="st1" d="M469.51,455.06c-0.38,0-0.77-0.1-1.12-0.3l-8.64-4.99c-1.08-0.62-1.45-2-0.82-3.07
						c0.62-1.08,2-1.45,3.07-0.82l8.64,4.99c1.08,0.62,1.45,2,0.82,3.07C471.05,454.66,470.29,455.06,469.51,455.06z"/>
				</g>
				<g>
					<path class="st1" d="M460.18,489.89h-9.98c-1.24,0-2.25-1.01-2.25-2.25c0-1.24,1.01-2.25,2.25-2.25h9.98
						c1.24,0,2.25,1.01,2.25,2.25C462.43,488.88,461.42,489.89,460.18,489.89z"/>
				</g>
				<g>
					<path class="st1" d="M564.68,429.56c-0.38,0-0.77-0.1-1.12-0.3c-1.08-0.62-1.45-2-0.82-3.07l4.99-8.64
						c0.62-1.08,2-1.45,3.07-0.82c1.08,0.62,1.45,2,0.82,3.07l-4.99,8.64C566.21,429.16,565.46,429.56,564.68,429.56z"/>
				</g>
				<g>
					<path class="st1" d="M590.18,455.06c-0.78,0-1.53-0.4-1.95-1.12c-0.62-1.08-0.25-2.45,0.82-3.07l8.64-4.99
						c1.08-0.62,2.45-0.25,3.07,0.82c0.62,1.08,0.25,2.45-0.82,3.07l-8.64,4.99C590.95,454.96,590.56,455.06,590.18,455.06z"/>
				</g>
				<g>
					<path class="st1" d="M609.49,489.89h-9.98c-1.24,0-2.25-1.01-2.25-2.25c0-1.24,1.01-2.25,2.25-2.25h9.98
						c1.24,0,2.25,1.01,2.25,2.25C611.74,488.88,610.73,489.89,609.49,489.89z"/>
				</g>
			</g>
		</g>
	</g>
</g>
</svg>
